@startuml
'https://plantuml.com/class-diagram




class CenterOfMassVessel{
-length
-width
-height
-proaLength
-proaHeight
-popaLength
-popaHeight
-baseEstruturalLength
-baseEstruturalHeight
-torreLength
-torreHeight
-MATERIAL_DENSITY
-centerOfMassX
-centerOfMass
+centerOfMass()
+CenterOfMassVessel()
+calculateCenterOfMassXWContainer()
+calculateCenterOfMassYWContainer()
}



class US419Controller{
-company
-containerStore
+centerOfMass()
}



class WriteTxt{
+writetxt()
}



US419Controller..>CenterOfMassVessel

US419Controller ..> WriteTxt


@enduml
